<svg id="GitHub_Button" data-name="GitHub Button" xmlns="http://www.w3.org/2000/svg" width="61.655" height="59.087" viewBox="0 0 61.655 59.087">
  <path id="github_1_" data-name="github (1)" d="M30.828.5C13.8.5,0,14.064,0,30.793A30.344,30.344,0,0,0,21.078,59.535c1.541.285,2.107-.653,2.107-1.457,0-.719-.026-2.625-.039-5.151-8.575,1.827-10.384-4.064-10.384-4.064-1.4-3.5-3.43-4.431-3.43-4.431-2.792-1.878.216-1.839.216-1.839a6.449,6.449,0,0,1,4.722,3.121c2.749,4.632,7.216,3.293,8.979,2.52A6.414,6.414,0,0,1,25.2,44.183C18.355,43.425,11.16,40.82,11.16,29.213a11.574,11.574,0,0,1,3.173-8.128,10.6,10.6,0,0,1,.27-8.018s2.582-.812,8.478,3.106a29.557,29.557,0,0,1,15.414,0c5.857-3.918,8.439-3.106,8.439-3.106a10.892,10.892,0,0,1,.308,8.018,11.621,11.621,0,0,1,3.16,8.128c0,11.637-7.206,14.2-14.065,14.944,1.079.909,2.081,2.767,2.081,5.605,0,4.054-.039,7.311-.039,8.3,0,.794.539,1.742,2.119,1.439a30.252,30.252,0,0,0,21.158-28.7C61.655,14.064,47.852.5,30.828.5Z" transform="translate(0 -0.5)" fill="#1a1919"/>
</svg>
