<svg id="LinkedIn_Button" data-name="LinkedIn Button" xmlns="http://www.w3.org/2000/svg" width="61.655" height="61.655" viewBox="0 0 61.655 61.655">
  <path id="linkedin_1_copy" data-name="linkedin (1) copy" d="M30.828,0A30.828,30.828,0,1,0,61.655,30.828,30.831,30.831,0,0,0,30.828,0ZM21.869,46.6H14.361V24.015h7.508ZM18.116,20.931h-.049a3.913,3.913,0,1,1,.1-7.8,3.915,3.915,0,1,1-.05,7.8ZM48.941,46.6H41.434V34.519c0-3.037-1.087-5.108-3.8-5.108a4.11,4.11,0,0,0-3.852,2.746,5.141,5.141,0,0,0-.247,1.832V46.6H26.024s.1-20.469,0-22.588h7.507v3.2A7.454,7.454,0,0,1,40.3,23.485c4.94,0,8.643,3.228,8.643,10.166Zm0,0" fill="#1a1919"/>
</svg>
